<svg width="326" height="268" viewBox="0 0 326 268" fill="none" xmlns="http://www.w3.org/2000/svg">
<path d="M163 169L163 96.851C163 91.3282 167.477 86.851 173 86.851L288 86.8511C293.523 86.8511 298 82.3739 298 76.8511L298 53.5" stroke="black" stroke-opacity="0.12" stroke-linecap="round"/>
<path d="M298 62L298 74" stroke="#9DFF5E" stroke-linecap="round"/>
<path d="M28 59L28 71" stroke="#9DFF5E" stroke-linecap="round"/>
<path d="M162 170L162 96.6468C162 91.124 157.523 86.6468 152 86.6468L38 86.6468C32.4772 86.6468 28 82.1697 28 76.6468L28 53.5" stroke="black" stroke-opacity="0.12" stroke-linecap="round"/>
<ellipse cx="162.5" cy="217.5" rx="50.5" ry="50.5" transform="rotate(-180 162.5 217.5)" fill="url(#paint0_linear_824_2707)"/>
<path d="M162.5 267C135.162 267 113 244.838 113 217.5C113 190.162 135.162 168 162.5 168C189.838 168 212 190.162 212 217.5C212 244.838 189.838 267 162.5 267Z" stroke="black" stroke-opacity="0.08" stroke-width="2"/>
<path d="M160.972 203.965C160.972 205.87 159.428 207.414 157.523 207.414C155.617 207.414 154.073 205.87 154.073 203.965C154.073 202.059 155.617 200.515 157.523 200.515C159.428 200.515 160.972 202.059 160.972 203.965ZM167.181 210.036C165.276 210.036 163.732 211.58 163.732 213.485C163.732 215.391 165.276 216.935 167.181 216.935C169.087 216.935 170.631 215.391 170.631 213.485C170.631 211.58 169.087 210.036 167.181 210.036ZM157.523 219.557C155.617 219.557 154.073 221.101 154.073 223.006C154.073 224.911 155.617 226.456 157.523 226.456C159.428 226.456 160.972 224.912 160.972 223.006C160.972 221.101 159.428 219.557 157.523 219.557ZM167.181 229.078C165.276 229.078 163.732 230.622 163.732 232.527C163.732 234.432 165.276 235.977 167.181 235.977C169.087 235.977 170.631 234.432 170.631 232.527C170.631 230.622 169.087 229.078 167.181 229.078ZM180.083 213.416C180.083 211.511 178.539 209.967 176.633 209.967C174.728 209.967 173.184 211.511 173.184 213.416C173.184 215.322 174.728 216.866 176.633 216.866C178.538 216.866 180.083 215.322 180.083 213.416ZM180.083 223.075C180.083 221.17 178.539 219.626 176.633 219.626C174.728 219.626 173.184 221.17 173.184 223.075C173.184 224.98 174.728 226.525 176.633 226.525C178.538 226.525 180.083 224.98 180.083 223.075ZM151.52 213.416C151.52 211.511 149.976 209.967 148.071 209.967C146.166 209.967 144.621 211.511 144.621 213.416C144.621 215.322 146.166 216.866 148.071 216.866C149.976 216.866 151.52 215.322 151.52 213.416ZM151.52 223.075C151.52 221.17 149.976 219.626 148.071 219.626C146.166 219.626 144.621 221.17 144.621 223.075C144.621 224.98 146.166 226.525 148.071 226.525C149.976 226.525 151.52 224.98 151.52 223.075Z" fill="white"/>
<path d="M162.5 189.271C178.091 189.271 190.729 201.909 190.729 217.5C190.729 233.091 178.091 245.729 162.5 245.729C146.909 245.729 134.271 233.091 134.271 217.5C134.271 201.909 146.909 189.271 162.5 189.271Z" stroke="white" stroke-width="2.54039"/>
<path d="M167.181 219.557C167.172 219.557 167.164 219.557 167.155 219.557L167.156 219.557C163.715 219.582 161.01 216.923 160.972 213.485C161.01 210.048 163.715 207.389 167.156 207.414L167.155 207.414C167.164 207.414 167.172 207.414 167.181 207.414C169.086 207.414 170.63 205.87 170.63 203.965C170.63 202.059 169.086 200.515 167.181 200.515C165.284 200.515 163.745 202.046 163.732 203.94L163.731 203.94C163.707 207.389 160.996 210.061 157.547 210.036L157.547 210.036C157.539 210.036 157.53 210.036 157.522 210.036C155.617 210.036 154.072 211.58 154.072 213.485C154.072 215.391 155.617 216.935 157.522 216.935C157.53 216.935 157.539 216.935 157.547 216.934L157.547 216.935C160.988 216.91 163.693 219.569 163.73 223.006C163.693 226.444 160.988 229.102 157.547 229.078L157.547 229.078C157.539 229.078 157.53 229.078 157.522 229.078C155.617 229.078 154.072 230.622 154.072 232.527C154.072 234.432 155.617 235.977 157.522 235.977C159.419 235.977 160.958 234.445 160.971 232.552L160.971 232.552C160.996 229.103 163.706 226.431 167.156 226.456L167.155 226.455C167.164 226.455 167.172 226.456 167.181 226.456C169.086 226.456 170.63 224.912 170.63 223.006C170.63 221.101 169.086 219.557 167.181 219.557Z" fill="white"/>
<circle cx="163" cy="27" r="26.5" transform="rotate(-180 163 27)" fill="black" fill-opacity="0.04" stroke="white"/>
<g clip-path="url(#clip0_824_2707)">
<path d="M151 27C151 22.5139 151 20.2708 151.965 18.6C152.597 17.5055 153.505 16.5965 154.6 15.9646C156.271 15 158.514 15 163 15C167.486 15 169.729 15 171.4 15.9646C172.495 16.5965 173.403 17.5055 174.035 18.6C175 20.2708 175 22.5139 175 27C175 31.4861 175 33.7292 174.035 35.4C173.403 36.4945 172.495 37.4035 171.4 38.0354C169.729 39 167.486 39 163 39C158.514 39 156.271 39 154.6 38.0354C153.505 37.4035 152.597 36.4945 151.965 35.4C151 33.7292 151 31.4861 151 27Z" fill="#00DC33"/>
<path fill-rule="evenodd" clip-rule="evenodd" d="M167.827 19.5655C168.332 19.0819 169.129 19.0797 169.637 19.5493L169.686 19.596L169.85 19.7683C171.515 21.559 172.135 23.6458 171.976 25.6839C171.815 27.7506 170.861 29.6996 169.53 31.2398C168.2 32.7789 166.425 33.9911 164.506 34.5172C162.563 35.0498 160.438 34.88 158.593 33.5777C157.028 32.473 156.432 30.6878 156.392 28.9536C155.514 28.523 154.59 27.9877 153.621 27.3369L153.365 27.1629L153.31 27.1236C152.76 26.7031 152.634 25.925 153.035 25.3538C153.436 24.7825 154.217 24.6276 154.808 24.9907L154.865 25.0275L155.098 25.1862C155.679 25.5761 156.233 25.9141 156.76 26.206C157.1 25.0133 157.663 23.8681 158.405 22.9242C159.516 21.51 161.183 20.3791 163.224 20.5478C165.063 20.6999 166.422 21.6486 167.124 22.9873C167.803 24.2836 167.813 25.8431 167.219 27.1842C166.614 28.5514 165.386 29.6903 163.619 30.1597C162.347 30.4974 160.857 30.4742 159.176 30.022V30.0226C158.507 29.8425 157.806 29.5938 157.073 29.2707C156.908 29.1982 156.765 29.3089 157.073 29.5011C157.938 30.1154 159.157 30.6302 159.51 30.8031C159.677 31.0728 159.884 31.294 160.121 31.4613C161.211 32.2312 162.487 32.3723 163.804 32.0113C165.145 31.6438 166.489 30.7575 167.531 29.5509C168.572 28.3453 169.244 26.9008 169.355 25.4836C169.459 24.1463 169.073 22.7725 167.911 21.5241L167.796 21.4038L167.75 21.3543C167.292 20.8364 167.321 20.049 167.827 19.5655ZM163.006 23.139C162.162 23.0693 161.272 23.5134 160.481 24.5197C159.878 25.2861 159.423 26.2819 159.19 27.3067C160.846 27.8726 162.079 27.8764 162.937 27.6488C163.929 27.3853 164.524 26.7886 164.81 26.1415C165.108 25.4683 165.078 24.7347 164.789 24.1833C164.522 23.6742 163.985 23.2201 163.006 23.139Z" fill="white"/>
</g>
<circle cx="95" cy="27" r="26.5" transform="rotate(-180 95 27)" fill="black" fill-opacity="0.04" stroke="white"/>
<g clip-path="url(#clip1_824_2707)">
<path d="M95 11L99.3636 15.2667L83 31.2666V22.7334L95 11Z" fill="#06D1D4"/>
<path d="M85.3266 33.5415L95 42.9999L107 31.2666V22.7333L99.3636 15.2666L83 31.2666L83.0033 31.2699L99.3636 15.2666V27.5333L92 34.7333V27.1058L85.3266 33.5415Z" fill="#3628A0"/>
</g>
<circle cx="27" cy="27" r="26.5" transform="rotate(-180 27 27)" fill="black" fill-opacity="0.04" stroke="white"/>
<g clip-path="url(#clip2_824_2707)">
<path fill-rule="evenodd" clip-rule="evenodd" d="M20.9915 20.4982L15 26.5C16.1984 27.7005 17.5674 28.7122 19.06 29.5038C19.4725 30.6 20.1192 31.6281 21 32.5104C24.3137 35.8298 29.6863 35.8298 33 32.5104C33.8808 31.6281 34.5275 30.6 34.94 29.5037C36.4326 28.7122 37.8016 27.7005 39 26.5L33.0134 20.503C33.0089 20.4986 33.0045 20.4941 33 20.4896C29.6863 17.1701 24.3137 17.1701 21 20.4896C20.9972 20.4924 20.9943 20.4953 20.9915 20.4982ZM32.4267 30.5866C30.6807 31.1769 28.8478 31.4792 27 31.4792C25.1522 31.4792 23.3194 31.1769 21.5734 30.5866C21.7625 30.838 21.9714 31.0793 22.2 31.3083C24.851 33.9639 29.149 33.9639 31.8 31.3083C32.0286 31.0793 32.2375 30.838 32.4267 30.5866ZM22.3231 21.5715C22.7732 21.8694 23.2519 22.1243 23.7528 22.3322C24.7823 22.7593 25.8857 22.9792 27 22.9792C28.1143 22.9792 29.2177 22.7593 30.2472 22.3322C30.7481 22.1243 31.2268 21.8694 31.677 21.5714C29.0591 19.0762 24.9409 19.0762 22.3231 21.5715Z" fill="#3B4158"/>
</g>
<circle cx="231" cy="27" r="26.5" transform="rotate(-180 231 27)" fill="black" fill-opacity="0.04" stroke="white"/>
<g clip-path="url(#clip3_824_2707)">
<path fill-rule="evenodd" clip-rule="evenodd" d="M231 15C235.486 15 237.729 14.9999 239.4 15.9645C240.495 16.5964 241.404 17.5055 242.036 18.6C243 20.2708 243 22.5139 243 27C243 31.4861 243 33.7292 242.036 35.4C241.404 36.4945 240.495 37.4036 239.4 38.0356C237.729 39.0001 235.486 39 231 39C226.514 39 224.271 39.0001 222.6 38.0356C221.505 37.4036 220.596 36.4945 219.964 35.4C219 33.7292 219 31.4861 219 27C219 22.5139 219 20.2708 219.964 18.6C220.596 17.5055 221.505 16.5964 222.6 15.9645C224.271 14.9999 226.514 15 231 15ZM232.2 17.4C226.898 17.4 222.6 21.698 222.6 27C222.6 32.302 226.898 36.6 232.2 36.6C237.502 36.6 241.8 32.302 241.8 27C241.8 21.698 237.502 17.4 232.2 17.4Z" fill="#FF4D00"/>
<path d="M240.6 27C240.6 30.3137 237.914 33 234.6 33C231.286 33 228.6 30.3137 228.6 27C228.6 23.6863 231.286 21 234.6 21C237.914 21 240.6 23.6863 240.6 27Z" fill="#FF4D00"/>
</g>
<circle cx="299" cy="27" r="26.5" transform="rotate(-180 299 27)" fill="black" fill-opacity="0.04" stroke="white"/>
<g clip-path="url(#clip4_824_2707)">
<path fill-rule="evenodd" clip-rule="evenodd" d="M297 18C297.165 18 297.33 18.004 297.493 18.0119C297.497 18.0121 297.5 18.0095 297.5 18.0062C297.5 18.003 297.502 18.0005 297.505 18.0005H306.646C306.842 18.0006 307 18.1587 307 18.354C307 18.4478 306.963 18.5377 306.896 18.604L304.5 21H309.605C309.946 21 310.259 21.2001 310.377 21.518C310.78 22.6023 311 23.7754 311 25C311 30.5228 306.523 35 301 35C300.835 35 300.67 34.9956 300.507 34.9876C300.503 34.9875 300.5 34.9901 300.5 34.9935C300.5 34.9969 300.498 34.9995 300.494 34.9995H291.354C291.158 34.9994 291 34.8413 291 34.646C291 34.5522 291.037 34.4623 291.104 34.396L293.499 32H288.395C288.054 32 287.741 31.7999 287.623 31.482C287.22 30.3977 287 29.2246 287 28C287 22.4772 291.477 18 297 18ZM300.422 25.0786C299.597 24.1128 298.37 23.5 297 23.5C294.515 23.5 292.5 25.5147 292.5 28C292.5 28.5261 292.591 29.0307 292.757 29.5H296L297.578 27.9214C298.403 28.8872 299.63 29.5 301 29.5C303.485 29.5 305.5 27.4853 305.5 25C305.5 24.4739 305.409 23.9693 305.243 23.5H302L300.422 25.0786Z" fill="#3754FA"/>
</g>
<defs>
<linearGradient id="paint0_linear_824_2707" x1="112" y1="167" x2="213" y2="268" gradientUnits="userSpaceOnUse">
<stop stop-color="#4642FC"/>
<stop offset="1" stop-color="#ADBBFE"/>
</linearGradient>
<clipPath id="clip0_824_2707">
<rect width="24" height="24" fill="white" transform="translate(151 15)"/>
</clipPath>
<clipPath id="clip1_824_2707">
<rect width="24" height="32" fill="white" transform="translate(83 11)"/>
</clipPath>
<clipPath id="clip2_824_2707">
<rect width="24" height="17" fill="white" transform="translate(15 18)"/>
</clipPath>
<clipPath id="clip3_824_2707">
<rect width="24" height="24" fill="white" transform="translate(219 15)"/>
</clipPath>
<clipPath id="clip4_824_2707">
<rect width="24" height="17" fill="white" transform="translate(287 18)"/>
</clipPath>
</defs>
</svg>
